<?xml version="1.0" encoding="UTF-8"?>
<svg width="14px" height="16px" viewBox="0 0 14 16" version="1.1" xmlns="http://www.w3.org/2000/svg" xmlns:xlink="http://www.w3.org/1999/xlink">
    <!-- Generator: Sketch 52.6 (67491) - http://www.bohemiancoding.com/sketch -->
    <title>Shape</title>
    <desc>Created with Sketch.</desc>
    <g id="Page-1" stroke="none" stroke-width="1" fill="none" fill-rule="evenodd">
        <g id="TWITTER-PROFILE-2018" transform="translate(-132.000000, -654.000000)" fill="#657786" fill-rule="nonzero">
            <g id="Profile" transform="translate(0.000000, 303.000000)">
                <g id="Quick-informations" transform="translate(129.000000, 350.000000)">
                    <g id="Place" transform="translate(3.000000, 0.000000)">
                        <path d="M7,1 C3.1,1 0,4.1 0,8 C0,9.9 0.7,11.7 2.1,13 C2.2,13.1 6.2,16.7 6.3,16.8 C6.7,17.1 7.3,17.1 7.6,16.8 C7.7,16.7 11.8,13.1 11.8,13 C13.2,11.7 13.9,9.9 13.9,8 C14,4.1 10.9,1 7,1 Z M10.4,11.6 C10.4,11.6 10.4,11.7 10.4,11.6 L7,14.6 L3.6,11.6 C3.6,11.6 3.6,11.6 3.6,11.6 C2.6,10.7 2,9.4 2,8 C2,5.2 4.2,3 7,3 C9.8,3 12,5.2 12,8 C12,9.4 11.4,10.7 10.4,11.6 Z" id="Shape"></path>
                    </g>
                </g>
            </g>
        </g>
    </g>
</svg>